<svg xmlns="http://www.w3.org/2000/svg" viewBox="228 183 85 105" width="512" height="512">
  <path
    fill="#004b87"
    fill-rule="evenodd"
    d="M276.56326,200.28712c1.57783,-6.11696 5.3384,-11.26077 9.93075,-13.58418c2.22838,-1.12736 3.23986,-1.07527 4.42722,0.22786c1.60603,1.76291 0.72745,4.08457 -2.05232,5.42232c-5.35451,2.57685 -8.04011,5.2739 -9.23034,9.26969c-0.34637,1.16315 -0.34809,1.16404 -1.98903,1.25134c-0.90332,0.04802 -1.64247,-0.0294 -1.64247,-0.17169c0,-0.14259 0.25028,-1.22951 0.55618,-2.41535zM263.2974,213.55412c1.90433,-3.5987 6.21268,-6.88286 10.10692,-7.70467c0.71115,-0.15017 2.40636,-0.22362 3.7667,-0.16321c4.07644,0.18028 7.46647,1.77096 10.37569,4.86795c2.01281,2.14227 3.05345,4.31675 4.60194,9.61219c2.13804,7.31381 3.22567,9.65055 7.41162,15.9218c1.55597,2.33117 3.29816,5.08965 3.8718,6.1301c1.3709,2.48691 2.68751,6.3029 3.13802,9.0959c0.45242,2.8047 0.21672,8.71251 -0.44418,11.12903c-0.68526,2.50455 -3.03427,7.27046 -4.60539,9.3435c-4.87025,6.42602 -12.60637,10.85919 -20.98365,12.02449c-14.91664,2.07456 -29.61977,-7.32781 -33.64148,-21.51355c-0.77728,-2.7416 -1.07207,-8.13543 -0.59773,-10.93859c0.81278,-4.80542 2.34697,-8.17359 6.62329,-14.54055c4.89474,-7.28792 5.99677,-9.58879 8.14586,-17.0077c0.71849,-2.48096 1.72217,-5.2964 2.23056,-6.25668zM264.53418,230.28699c0.92919,-2.83941 0.99095,-2.9332 2.24619,-3.41036c0.55062,-0.20924 2.06977,-0.32853 3.70552,-0.29094c2.47444,0.05677 2.98038,0.16609 4.70608,1.01647c2.51318,1.23856 4.409,3.32003 6.20317,6.81152c1.79609,3.49494 2.65299,4.73293 5.26533,7.60571c6.03401,6.63565 7.23076,14.30292 3.43223,21.99628c-1.0788,2.18484 -1.79877,3.18195 -3.57146,4.94716c-3.76363,3.74676 -7.57503,5.49835 -12.56341,5.77299c-5.68227,0.31319 -10.31908,-1.5086 -14.57068,-5.72447c-2.13394,-2.11618 -2.71625,-2.91325 -3.84273,-5.25862c-2.86555,-5.96651 -2.92548,-11.65281 -0.18335,-17.36289c0.6277,-1.30665 2.25064,-3.85991 3.60644,-5.67383c2.71596,-3.63283 4.3357,-6.66749 5.56666,-10.42901zM262.60073,243.03644c1.91626,-2.08972 3.05289,-2.90884 5.20378,-3.74983c1.93609,-0.75699 4.12937,-0.72688 5.14297,0.07039c1.85132,1.45624 1.88565,4.04211 0.06808,5.1328c-0.51533,0.30935 -1.5412,0.7869 -2.2792,1.06135c-1.93168,0.71748 -4.14337,2.77152 -5.11478,4.74923c-0.7033,1.43227 -0.81796,2.01396 -0.81532,4.14011c0.0032,2.80815 0.54816,4.35434 2.19792,6.23309c1.28536,1.46391 2.84574,2.4217 5.18574,3.18348c1.50304,0.48925 2.05634,0.83562 2.57494,1.61197c0.77482,1.1605 0.81989,1.78765 0.21902,3.05402c-0.63501,1.3381 -1.80414,1.92382 -3.82328,1.91576c-4.26669,-0.01726 -9.35228,-3.72758 -11.75716,-8.57769c-1.39888,-2.82157 -1.84818,-5.06069 -1.63633,-8.15614c0.27646,-4.03405 1.76699,-7.32455 4.83362,-10.66855z"
  />
</svg>
